<?xml version="1.0" encoding="UTF-8" standalone="no"?>
<!-- Created with Inkscape (http://www.inkscape.org/) -->

<svg
   xmlns:dc="http://purl.org/dc/elements/1.1/"
   xmlns:cc="http://creativecommons.org/ns#"
   xmlns:rdf="http://www.w3.org/1999/02/22-rdf-syntax-ns#"
   xmlns:svg="http://www.w3.org/2000/svg"
   xmlns="http://www.w3.org/2000/svg"
   xmlns:sodipodi="http://sodipodi.sourceforge.net/DTD/sodipodi-0.dtd"
   xmlns:inkscape="http://www.inkscape.org/namespaces/inkscape"
   width="209.27458mm"
   height="135.06927mm"
   viewBox="0 0 209.27458 135.06927"
   version="1.1"
   id="svg8"
   inkscape:version="0.92.3 (2405546, 2018-03-11)"
   sodipodi:docname="asgard_logo.svg">
  <defs
     id="defs2" />
  <sodipodi:namedview
     id="base"
     pagecolor="#ffffff"
     bordercolor="#666666"
     borderopacity="1.0"
     inkscape:pageopacity="0.0"
     inkscape:pageshadow="2"
     inkscape:zoom="0.98994949"
     inkscape:cx="127.48689"
     inkscape:cy="92.863491"
     inkscape:document-units="mm"
     inkscape:current-layer="layer1"
     showgrid="false"
     inkscape:window-width="2560"
     inkscape:window-height="1379"
     inkscape:window-x="0"
     inkscape:window-y="0"
     inkscape:window-maximized="1"
     inkscape:snap-grids="true"
     fit-margin-top="0"
     fit-margin-left="0"
     fit-margin-right="0"
     fit-margin-bottom="0" />
  <metadata
     id="metadata5">
    <rdf:RDF>
      <cc:Work
         rdf:about="">
        <dc:format>image/svg+xml</dc:format>
        <dc:type
           rdf:resource="http://purl.org/dc/dcmitype/StillImage" />
        <dc:title />
      </cc:Work>
    </rdf:RDF>
  </metadata>
  <g
     inkscape:label="Layer 1"
     inkscape:groupmode="layer"
     id="layer1"
     transform="translate(-0.29852003,-0.25513297)">
    <g
       id="g1939"
       inkscape:export-xdpi="300"
       inkscape:export-ydpi="300">
      <path
         inkscape:connector-curvature="0"
         id="path1290"
         d="m 0.29852003,117.77712 c 0,-0.42506 2.30187367,-6.01489 7.90622357,-19.19933 7.0834354,-16.66404 7.2043024,-16.939272 7.5883124,-17.279646 0.175546,-0.155628 0.67787,-0.334892 1.11628,-0.398423 1.462072,-0.21189 1.499672,-0.144725 6.421405,11.479333 1.713967,4.048009 4.078816,9.592806 5.255219,12.321786 2.879337,6.67939 5.520257,12.98918 5.520257,13.1892 0,0.32834 -2.323112,-0.0111 -2.718017,-0.39777 -0.540493,-0.52849 -2.227632,-4.33723 -7.06908,-15.95852 -4.490903,-10.77986 -6.968808,-16.308544 -7.363806,-16.430076 -0.137037,-0.04219 -0.38595,0.284838 -0.558954,0.734357 -0.635762,1.651818 -12.0606038,28.936139 -12.6089468,30.112129 -0.8371475,1.79538 -1.1395459,2.05249 -2.4140809,2.05249 -0.63197164,0 -1.07481227,-0.0929 -1.07481227,-0.22553 z"
         style="opacity:1;fill:#4f9198;fill-opacity:1;stroke:none;stroke-width:0.15508099;stroke-miterlimit:4;stroke-dasharray:none;stroke-opacity:1"
         inkscape:export-xdpi="300"
         inkscape:export-ydpi="300" />
      <path
         inkscape:connector-curvature="0"
         id="path1292"
         d="m 45.896754,118.03587 c -2.694254,-0.41046 -6.656108,-2.2298 -8.28511,-3.80466 l -0.831973,-0.8043 0.466852,-0.96766 c 0.25677,-0.53221 0.55503,-0.96765 0.662804,-0.96765 0.107775,0 0.985341,0.53815 1.950146,1.1959 2.029487,1.38357 3.545474,2.08923 5.38465,2.50646 1.997868,0.45321 5.38643,0.60963 7.071457,0.3264 2.519444,-0.42348 5.137006,-2.12527 6.011281,-3.90821 0.207167,-0.42247 0.346573,-1.36188 0.40009,-2.6961 0.0717,-1.7874 0.0277,-2.16923 -0.346248,-3.00381 -0.835359,-1.86443 -2.559545,-2.88217 -7.726196,-4.56057 -5.527072,-1.795464 -8.549426,-2.944707 -9.534351,-3.625377 -3.911186,-2.703007 -4.576324,-8.994488 -1.377735,-13.031911 2.463691,-3.109788 7.988565,-4.690554 13.011758,-3.722914 2.884829,0.555725 6.741099,2.210292 7.256326,3.113375 0.2832,0.496412 -0.32149,1.858841 -0.825009,1.858841 -0.201821,0 -1.123636,-0.383112 -2.048473,-0.85137 -2.546625,-1.289387 -4.304599,-1.725918 -7.068777,-1.755321 -2.6014,-0.02765 -3.868654,0.227216 -5.667186,1.139826 -1.585098,0.804303 -2.697242,1.880456 -3.304895,3.19795 -0.419978,0.910572 -0.505072,1.385181 -0.501508,2.797095 0.0099,3.941804 1.544086,5.21577 9.411462,7.8154 4.018764,1.327938 6.47828,2.267126 7.785092,2.972806 1.166776,0.63006 2.63312,2.35192 3.279495,3.85095 0.463954,1.076 0.52109,1.46135 0.524031,3.53463 0.0031,2.19975 -0.03127,2.4028 -0.628617,3.71384 -1.194707,2.62201 -3.849025,4.65259 -7.003436,5.3577 -1.831303,0.40938 -6.309363,0.58629 -8.06593,0.31868 z"
         style="opacity:1;fill:#6f9e9e;fill-opacity:1;stroke:none;stroke-width:0.15508099;stroke-miterlimit:4;stroke-dasharray:none;stroke-opacity:1"
         inkscape:export-xdpi="300"
         inkscape:export-ydpi="300" />
      <path
         inkscape:connector-curvature="0"
         id="path1294"
         d="m 80.651507,117.91994 c -5.23669,-1.21434 -10.016891,-5.12895 -12.096506,-9.90609 -1.617041,-3.71454 -2.026321,-9.363145 -0.995853,-13.744118 1.440854,-6.125725 5.768196,-10.753001 11.831288,-12.651358 5.881868,-1.841605 13.20629,-0.428379 16.74812,3.231493 0.864686,0.893508 0.931243,1.527963 0.223391,2.129555 -0.570034,0.484452 -0.369803,0.550653 -2.812709,-0.929942 -5.52289,-3.347322 -10.563513,-3.570051 -16.024454,-0.708082 -1.785452,0.935725 -2.268485,1.31198 -3.719647,2.897439 -1.312433,1.433891 -1.841988,2.20443 -2.485655,3.61677 -1.131866,2.483549 -1.651075,4.992441 -1.638109,7.915586 0.01984,4.473477 1.27657,7.793077 4.125196,10.896507 3.17669,3.46086 6.372627,4.83555 11.241891,4.83555 3.446571,0 6.322401,-0.79522 8.647344,-2.39113 l 0.830535,-0.57012 v -6.43711 -6.437107 h 1.270233 1.270228 l -0.0092,7.020387 -0.0092,7.0204 -1.016709,0.87172 c -1.283438,1.10042 -2.545812,1.78468 -4.554262,2.46861 -3.266004,1.11214 -8.106578,1.50162 -10.825833,0.87104 z"
         style="opacity:1;fill:#83b1a9;fill-opacity:1;stroke:none;stroke-width:0.15508099;stroke-miterlimit:4;stroke-dasharray:none;stroke-opacity:1"
         inkscape:export-xdpi="300"
         inkscape:export-ydpi="300" />
      <path
         inkscape:connector-curvature="0"
         id="path1296"
         d="m 134.76203,117.88105 -1.29109,-0.0731 -6.72113,-15.95695 c -3.69662,-8.776328 -6.84299,-16.278307 -6.99193,-16.671073 -0.14894,-0.392767 -0.33091,-0.714134 -0.40439,-0.714134 -0.0734,0 -3.14709,7.163612 -6.83022,15.919127 -3.68316,8.75553 -6.91199,16.26154 -7.17519,16.68005 -0.46683,0.74225 -0.5096,0.7609 -1.74438,0.7609 h -1.2658 l 0.27792,-0.6862 c 0.15284,-0.37741 2.88889,-6.81453 6.08011,-14.30471 3.1912,-7.490194 6.57015,-15.42376 7.50876,-17.63018 l 1.70656,-4.011654 1.05871,-0.14441 c 0.74816,-0.102067 1.17724,-0.06146 1.4628,0.13809 0.40998,0.286481 2.69124,5.413567 7.6124,17.10866 1.41707,3.367674 3.86454,9.127744 5.4388,12.800134 1.57427,3.6724 2.8623,6.73656 2.8623,6.80925 0,0.0727 -0.066,0.1136 -0.14657,0.0909 -0.0806,-0.0228 -0.72754,-0.0743 -1.43766,-0.11455 z"
         style="opacity:1;fill:#a1c2b7;fill-opacity:1;stroke:none;stroke-width:0.15508099;stroke-miterlimit:4;stroke-dasharray:none;stroke-opacity:1"
         inkscape:export-xdpi="300"
         inkscape:export-ydpi="300" />
      <path
         inkscape:connector-curvature="0"
         id="path1298"
         d="m 142.51581,110.8054 c 0.0747,-3.86123 0.14624,-7.03398 0.15875,-7.05057 0.0132,-0.0166 3.40915,-0.13429 7.54796,-0.26162 4.13882,-0.12735 8.048,-0.33589 8.68709,-0.46354 2.53204,-0.50572 5.09241,-2.55221 6.16363,-4.926553 1.73466,-3.844808 1.01508,-8.772533 -1.6837,-11.530239 -1.33279,-1.361892 -3.07238,-2.246457 -4.96079,-2.522495 -1.07159,-0.156575 -12.08247,-0.607564 -15.58477,-0.638231 -0.16599,-0.0012 -0.24427,-0.379621 -0.24427,-1.1801 v -1.177967 l 7.86566,0.09401 c 6.43085,0.07694 8.11343,0.157997 9.22392,0.444605 2.7316,0.705033 5.47726,2.567572 6.84177,4.641164 2.35998,3.586372 2.72726,9.20611 0.85413,13.068583 -0.83687,1.725633 -3.20141,4.281073 -4.79714,5.184403 -0.6681,0.37822 -1.26362,0.77312 -1.32338,0.87758 -0.12196,0.21318 1.93187,3.52575 5.28053,8.51698 1.23245,1.83697 2.24081,3.47594 2.24081,3.64216 0,0.22598 -0.27433,0.3022 -1.08766,0.3022 -0.59822,0 -1.24276,-0.0897 -1.43232,-0.1993 -0.18957,-0.10965 -2.05249,-2.783 -4.13983,-5.94085 l -3.79517,-5.74156 -4.67286,0.13446 c -2.57009,0.0739 -5.59352,0.13446 -6.71872,0.13446 h -2.04584 l 0.14361,5.80635 0.1436,5.80633 h -1.40042 -1.40043 z"
         style="opacity:1;fill:#bad3c1;fill-opacity:1;stroke:none;stroke-width:0.15508099;stroke-miterlimit:4;stroke-dasharray:none;stroke-opacity:1"
         inkscape:export-xdpi="300"
         inkscape:export-ydpi="300" />
      <path
         inkscape:connector-curvature="0"
         id="path1300"
         d="m 177.97076,108.76786 v -9.100077 l 0.83054,0.0032 c 0.45679,0.0016 1.02734,0.05988 1.26788,0.129558 l 0.43733,0.126715 0.0512,7.840994 0.0512,7.841 5.86262,-0.0531 c 3.22443,-0.0292 6.64553,-0.15168 7.60244,-0.27217 4.11277,-0.51779 7.73076,-2.63767 10.06177,-5.89551 1.25358,-1.75202 2.33421,-4.29739 2.55802,-6.0253 0.2528,-1.95176 0.24806,-6.198323 -0.009,-7.917732 -0.57284,-3.834254 -4.04118,-8.330408 -7.90193,-10.243664 -2.48141,-1.229712 -2.98772,-1.290209 -13.27339,-1.586107 -3.96844,-0.114232 -7.23196,-0.230787 -7.25225,-0.259163 -0.0203,-0.02844 -0.0939,-0.597927 -0.16346,-1.265656 l -0.1265,-1.214054 5.3269,0.0016 c 10.52724,0.0032 13.65327,0.466615 17.3835,2.574018 5.16317,2.916936 8.32408,8.252848 8.8554,14.948691 0.25622,3.228997 -0.7416,7.925727 -2.26901,10.680227 -1.52016,2.74145 -4.6326,5.6517 -7.65504,7.15778 -2.84998,1.42015 -2.84819,1.41994 -12.69787,1.52953 l -8.94047,0.0995 z"
         style="opacity:1;fill:#bad3c1;fill-opacity:1;stroke:none;stroke-width:0.15508099;stroke-miterlimit:4;stroke-dasharray:none;stroke-opacity:1"
         inkscape:export-xdpi="300"
         inkscape:export-ydpi="300" />
      <text
         transform="scale(0.96205464,1.039442)"
         id="text1415"
         y="128.98296"
         x="23.860168"
         style="font-style:normal;font-variant:normal;font-weight:normal;font-stretch:normal;font-size:16.08691406px;line-height:1.25;font-family:'TeX Gyre Adventor';-inkscape-font-specification:'TeX Gyre Adventor';letter-spacing:0px;word-spacing:0px;fill:#000000;fill-opacity:1;stroke:none;stroke-width:0.40217283"
         xml:space="preserve"
         inkscape:export-xdpi="300"
         inkscape:export-ydpi="300"><tspan
           style="font-style:normal;font-variant:normal;font-weight:normal;font-stretch:normal;font-size:9.65214825px;font-family:'TeX Gyre Adventor';-inkscape-font-specification:'TeX Gyre Adventor';fill:#4f9198;fill-opacity:1;stroke-width:0.40217283"
           y="128.98296"
           x="23.860168"
           id="tspan1413"
           sodipodi:role="line">HEIMDALLR | Baldr | BIFROST | NOTT</tspan></text>
    </g>
    <path
       style="opacity:1;fill:#32828d;fill-opacity:1;stroke:none;stroke-width:0.15508099;stroke-miterlimit:4;stroke-dasharray:none;stroke-opacity:1"
       d="m 113.25896,61.117961 c -0.087,-0.145153 -0.18483,-7.928836 -0.21753,-17.297062 l -0.0594,-17.033138 1.0365,0.26832 c 4.17331,1.080354 9.37012,5.00084 12.13424,9.154063 2.08877,3.138596 3.81069,7.453825 4.45037,11.15302 0.35542,2.055187 0.17635,5.056579 -0.3736,6.263536 -1.48711,3.263573 -5.57549,5.455558 -13.51342,7.245174 -2.54805,0.574461 -3.23133,0.623099 -3.45718,0.246087 z"
       id="path1734"
       inkscape:connector-curvature="0"
       inkscape:export-xdpi="300"
       inkscape:export-ydpi="300" />
    <path
       style="opacity:1;fill:#32828d;fill-opacity:1;stroke:none;stroke-width:0.15508099;stroke-miterlimit:4;stroke-dasharray:none;stroke-opacity:1"
       d="m 113.46519,66.455644 c -0.0717,-0.07742 -0.13029,-0.974219 -0.13029,-1.99289 v -1.85213 l 0.92824,-0.133097 c 5.52569,-0.792344 8.68931,-1.69196 11.92304,-3.390455 1.74513,-0.916622 2.46831,-1.439287 3.49232,-2.524102 0.71026,-0.752454 1.38096,-1.368104 1.49039,-1.368104 0.12444,0 0.15956,0.469513 0.0937,1.254461 -0.40645,4.843161 -5.067,8.05899 -14.08751,9.720555 -2.40462,0.442927 -3.48721,0.526318 -3.70988,0.28577 z"
       id="path1738"
       inkscape:connector-curvature="0"
       inkscape:export-xdpi="300"
       inkscape:export-ydpi="300" />
    <path
       sodipodi:nodetypes="cccccccsc"
       style="opacity:1;fill:#32828d;fill-opacity:1;stroke:none;stroke-width:0.15508099;stroke-miterlimit:4;stroke-dasharray:none;stroke-opacity:1"
       d="m 129.29113,40.133829 c -0.29717,-0.551603 -1.07346,-2.21942 -1.99953,-3.729071 l -1.80467,-2.520868 0.7855,-2.004176 c 1.18582,-3.176341 1.51743,-7.06172 0.90193,-10.56734 -0.44347,-2.52602 -0.35305,-2.649779 0.92081,-1.260339 4.31086,4.701845 5.91586,11.487109 4.09284,17.302854 -0.7053,2.25016 -1.97272,3.875163 -2.37201,3.875163 -0.14648,0 -0.22767,-0.544622 -0.52487,-1.096223 z"
       id="path1742"
       inkscape:connector-curvature="0"
       inkscape:export-xdpi="300"
       inkscape:export-ydpi="300" />
    <path
       inkscape:connector-curvature="0"
       id="path1734-7"
       d="m 99.495423,61.17611 c 0.087,-0.145152 0.18483,-7.928835 0.21753,-17.297062 l 0.0594,-17.033136 -1.036496,0.26832 c -4.173315,1.080352 -9.370125,5.000839 -12.134236,9.154062 -2.08877,3.138596 -3.810697,7.453825 -4.450371,11.15302 -0.355423,2.055187 -0.176359,5.056579 0.3736,6.263535 1.487103,3.263574 5.575485,5.455558 13.513418,7.245175 2.548049,0.57446 3.23133,0.623098 3.457175,0.246086 z"
       style="opacity:1;fill:#32828d;fill-opacity:1;stroke:none;stroke-width:0.15508099;stroke-miterlimit:4;stroke-dasharray:none;stroke-opacity:1"
       inkscape:export-xdpi="300"
       inkscape:export-ydpi="300" />
    <path
       sodipodi:nodetypes="cccccccsc"
       style="opacity:1;fill:#32828d;fill-opacity:1;stroke:none;stroke-width:0.15508099;stroke-miterlimit:4;stroke-dasharray:none;stroke-opacity:1"
       d="m 83.432557,40.13265 c 0.297178,-0.551603 1.073464,-2.219419 1.999538,-3.729071 l 1.804666,-2.520867 -0.785499,-2.004176 c -1.185816,-3.176342 -1.517432,-7.061721 -0.901931,-10.56734 0.443471,-2.52602 0.353054,-2.64978 -0.92081,-1.260339 -4.310863,4.701844 -5.91586,11.487109 -4.092841,17.302854 0.705303,2.250159 1.972718,3.875163 2.372012,3.875163 0.146483,0 0.227672,-0.544623 0.524865,-1.096224 z"
       id="path1742-1"
       inkscape:connector-curvature="0"
       inkscape:export-xdpi="300"
       inkscape:export-ydpi="300" />
    <path
       style="opacity:1;fill:#32828d;fill-opacity:1;stroke:none;stroke-width:0.15508099;stroke-miterlimit:4;stroke-dasharray:none;stroke-opacity:1"
       d="m 99.514233,66.510293 c 0.0717,-0.07742 0.1303,-0.97422 0.1303,-1.992891 v -1.85213 L 98.71629,62.532175 c -5.525692,-0.792344 -8.689316,-1.69196 -11.923044,-3.390455 -1.745134,-0.916621 -2.468308,-1.439287 -3.492315,-2.524102 -0.710261,-0.752454 -1.380966,-1.368104 -1.490393,-1.368104 -0.124446,0 -0.159557,0.469513 -0.09374,1.254461 0.406445,4.843161 5.066998,8.058991 14.087506,9.720555 2.404622,0.442927 3.487211,0.526319 3.709889,0.28577 z"
       id="path1738-4"
       inkscape:connector-curvature="0"
       inkscape:export-xdpi="300"
       inkscape:export-ydpi="300" />
    <ellipse
       style="opacity:1;fill:#ffffff;fill-opacity:0;stroke:#32828d;stroke-width:0.86900002;stroke-miterlimit:4;stroke-dasharray:none;stroke-opacity:1"
       id="path39-0"
       cx="106.41093"
       cy="31.198315"
       rx="5.2263546"
       ry="4.6001992"
       inkscape:export-xdpi="300"
       inkscape:export-ydpi="300" />
    <path
       sodipodi:type="star"
       style="opacity:1;fill:#32828d;fill-opacity:1;stroke-width:0.79374999;stroke-miterlimit:4;stroke-dasharray:none"
       id="path37-5"
       sodipodi:sides="5"
       sodipodi:cx="102.89877"
       sodipodi:cy="104.83321"
       sodipodi:r1="4.7076631"
       sodipodi:r2="2.3538313"
       sodipodi:arg1="0.96704699"
       sodipodi:arg2="1.5953655"
       inkscape:flatsided="false"
       inkscape:rounded="0"
       inkscape:randomized="0"
       d="m 105.57147,108.70862 -2.73052,-1.52229 -2.802,1.38634 0.604,-3.0673 -2.184341,-2.23646 3.103821,-0.3734 1.452,-2.76854 1.31426,2.83652 3.08172,0.52541 -2.29156,2.12646 z"
       inkscape:transform-center-x="0.018852091"
       inkscape:transform-center-y="-0.43157764"
       transform="matrix(1.4613159,-0.05927857,0.05486523,1.5788637,-49.488096,-151.72516)"
       inkscape:export-xdpi="300"
       inkscape:export-ydpi="300" />
    <path
       style="fill:#32828d;fill-opacity:1;stroke-width:0.41589686"
       d="m 108.87979,27.215829 a 5.2263545,4.6001992 0 0 1 0.30231,0.159163 l -0.10232,-0.14211 c -0.0621,-0.0068 -0.13469,-0.01099 -0.19999,-0.01705 z m -5.05963,0.06305 c -0.0239,0.0025 -0.052,0.0047 -0.0755,0.0072 l -0.0362,0.04909 a 5.2263545,4.6001992 0 0 1 0.11163,-0.05633 z m -2.59158,3.420463 -0.15193,0.206189 1.04283,17.394288 1.03043,20.933087 h 3.26233 3.36569 l 1.13378,-20.807513 0.82269,-17.519862 -0.14366,-0.198954 a 5.2263545,4.6001992 0 0 1 0.0455,0.561206 5.2263545,4.6001992 0 0 1 -5.22604,4.600236 5.2263545,4.6001992 0 0 1 -5.22656,-4.600236 5.2263545,4.6001992 0 0 1 0.045,-0.568441 z"
       id="path1834-2-3"
       inkscape:connector-curvature="0"
       inkscape:export-xdpi="300"
       inkscape:export-ydpi="300" />
  </g>
</svg>
